<?xml version="1.0" standalone="no"?>
<!DOCTYPE svg PUBLIC "-//W3C//DTD SVG 20010904//EN"
 "http://www.w3.org/TR/2001/REC-SVG-20010904/DTD/svg10.dtd">
<svg version="1.0" xmlns="http://www.w3.org/2000/svg"
 width="273.000000pt" height="206.000000pt" viewBox="0 0 273.000000 206.000000"
 preserveAspectRatio="xMidYMid meet">

<g transform="translate(0.000000,206.000000) scale(0.100000,-0.100000)"
fill="#000000" stroke="none">
<path d="M1345 1958 c-3 -7 -4 -278 -3 -603 l3 -590 25 0 25 0 0 600 0 600
-23 3 c-12 2 -24 -3 -27 -10z"/>
<path d="M1556 1823 c-8 -19 -8 -897 0 -916 4 -12 11 -13 35 -5 l29 10 0 453
0 453 -29 10 c-24 8 -31 7 -35 -5z"/>
<path d="M1965 1687 c-3 -7 -4 -156 -3 -332 l3 -320 30 0 30 0 3 324 c2 253
-1 326 -10 333 -20 12 -48 10 -53 -5z"/>
<path d="M1756 1615 c-9 -25 -7 -488 3 -503 4 -8 19 -12 32 -10 l24 3 0 260 0
260 -26 3 c-17 2 -29 -3 -33 -13z"/>
<path d="M2178 1529 c-16 -9 -18 -28 -18 -164 0 -145 1 -155 20 -165 12 -6 30
-8 40 -5 19 6 20 16 20 164 0 179 -8 202 -62 170z"/>
<path d="M2388 1419 c-27 -15 -25 -95 2 -109 14 -8 26 -8 40 0 28 15 29 95 1
110 -23 12 -22 12 -43 -1z"/>
<path d="M2598 1419 c-27 -15 -25 -95 2 -109 14 -8 26 -8 40 0 28 15 29 95 1
110 -23 12 -22 12 -43 -1z"/>
<path d="M1523 544 c-41 -21 -67 -74 -58 -122 9 -47 51 -85 126 -114 83 -32
109 -57 109 -107 0 -31 -6 -44 -27 -61 -24 -19 -37 -21 -98 -17 -38 3 -80 8
-91 12 -15 5 -23 2 -28 -10 -16 -43 161 -62 232 -26 43 22 62 55 62 110 0 55
-31 88 -119 129 -42 19 -86 44 -98 55 -31 28 -30 71 3 104 23 23 30 25 87 20
34 -3 71 -7 82 -9 12 -2 21 3 23 13 7 37 -143 53 -205 23z"/>
<path d="M2374 541 c-50 -23 -91 -74 -110 -137 -18 -61 -18 -108 1 -172 30
-101 100 -152 208 -152 61 0 127 15 127 28 -1 25 -18 32 -49 21 -47 -16 -146
-7 -178 17 -47 35 -68 90 -68 174 1 138 66 208 184 197 31 -3 66 -8 77 -12 15
-5 23 -2 28 10 16 42 -143 61 -220 26z"/>
<path d="M196 488 c-8 -79 -26 -334 -26 -370 0 -23 4 -28 25 -28 25 0 25 1 25
78 0 117 12 292 20 292 4 0 40 -70 81 -155 58 -123 77 -155 91 -153 13 2 41
51 90 156 39 83 74 152 78 152 8 0 20 -156 20 -260 0 -84 8 -110 31 -110 23 0
24 26 9 235 -15 216 -17 227 -43 223 -17 -2 -39 -37 -102 -165 -73 -148 -95
-184 -95 -152 0 6 -34 80 -75 165 -66 134 -79 154 -99 154 -22 0 -24 -5 -30
-62z"/>
<path d="M891 373 c5 -199 12 -226 79 -270 47 -32 143 -32 190 0 65 43 73 69
78 268 l5 179 -27 0 -26 0 0 -160 c0 -181 -12 -230 -61 -255 -36 -19 -92 -19
-128 0 -49 25 -61 74 -61 255 l0 160 -26 0 -26 0 3 -177z"/>
<path d="M1970 320 l0 -230 25 0 25 0 0 230 0 230 -25 0 -25 0 0 -230z"/>
</g>
</svg>
